<svg width="152" height="169" viewBox="0 0 152 169" fill="none" xmlns="http://www.w3.org/2000/svg">
<path d="M151 100.5C151 138.055 114.055 169 76.5 169C38.9446 169 0.5 134.555 0.5 97C0.5 59.4446 38.9446 33 76.5 33C114.055 33 151 62.9446 151 100.5Z" fill="#D82525"/>
<path d="M151.5 100.5C151.5 138.055 114.555 169 77 169C39.4446 169 15.5 137.055 15.5 99.5C15.5 61.9446 39.4446 33 77 33C114.555 33 151.5 62.9446 151.5 100.5Z" fill="#F24949"/>
<path d="M21.2014 48.7507C19.0103 47.1051 35.1527 32.5509 47.4968 30.1016C53.3727 28.9357 57.9054 28.456 62.8357 30.1016C67.766 31.7472 67.2182 9.80695 69.4096 4.32192C71.6009 -1.16311 77.0791 -1.71165 79.8181 4.32192C82.5572 10.3555 81.4615 32.8442 84.7485 30.1016C88.0355 27.359 99.5164 27.3795 108.305 30.1016C119.349 33.5224 138.846 51.4933 131.313 48.7507C123.78 46.0081 110.039 39.0747 100.635 46.5567C95.7522 50.4421 94.0614 67.3999 92.418 60.2693C90.7746 53.1387 84.713 46.9523 76.5312 46.5567C67.8538 46.1371 62.8357 63.0118 59.001 60.2693C55.1662 57.5268 52.2743 49.501 45.3055 46.5567C36.597 42.8774 23.3925 50.3963 21.2014 48.7507Z" fill="#15C369"/>
<path d="M31.5 43C29.3089 41.3544 41.1527 35.9493 53.4968 33.5C59.3727 32.3341 63.9054 31.8544 68.8357 33.5C73.766 35.1456 69.8086 13.985 72 8.49999C74.1913 3.01496 76.761 -2.0336 79.5 3.99998C82.239 10.0336 85.213 30.7425 88.5 28C91.787 25.2574 105.516 27.3795 114.305 30.1016C125.349 33.5224 138.533 51.4932 131 48.7507C123.467 46.0081 116.039 39.0746 106.635 46.5567C101.752 50.4421 95.1434 67.3998 93.5 60.2693C91.8566 53.1387 90.713 46.9523 82.5312 46.5567C73.8538 46.1371 63.8347 63.0117 60 60.2693C56.1653 57.5268 56.5298 52.0284 51.3055 46.5567C46 41 33.6911 44.6456 31.5 43Z" fill="#24F589"/>
</svg>
